<?xml version="1.0" encoding="utf-8"?>
<!-- Generator: Adobe Illustrator 21.0.2, SVG Export Plug-In . SVG Version: 6.00 Build 0)  -->
<svg version="1.1" id="Layer_1" xmlns="http://www.w3.org/2000/svg" xmlns:xlink="http://www.w3.org/1999/xlink" x="0px" y="0px"
	 viewBox="0 0 100 100" style="enable-background:new 0 0 100 100;" xml:space="preserve">
<g>
	<path d="M68.2,70.4"/>
	<path d="M90.1,64.4l-19.2,5.4v0.1c0.5,1.9,0.2,4-0.8,5.7c-1,1.9-2.7,3.2-4.8,3.8c-2,0.6-4.2,0.3-6.1-0.7l-10.9-6.2l1-1.9l11.1,6.2
		c1.4,0.8,2.9,0.9,4.4,0.5c1.5-0.4,2.7-1.4,3.5-2.8c0.4-0.7,0.6-1.5,0.7-2.3c0.3-1.9-0.6-3.9-2.3-4.8L39.8,52.5c0,0-2.8-1.9-6.6-0.8
		c0,0,0,0-0.1,0c-0.6,0.2-29.5,8.4-30.7,8.8H2.3l5.9,20.7l19.3-5.5c2,1.2,16.7,10.3,18.5,11.4c3.3,1.9,7.3,0.9,8.2,0.6
		c0.1,0,39.3-11.2,39.3-11.2c2.7-0.8,5-4.4,3.9-8.1C96.6,65.3,93.3,63.5,90.1,64.4z"/>
	<path d="M71,11.7c-12.2,0-22.1,9.9-22.1,22.1S58.8,55.9,71,55.9S93.1,46,93.1,33.8S83.2,11.7,71,11.7z M62.6,45.8
		c-1,0.9-1.5,2.2-1.7,3.4c-2.3-1.5-4.2-3.5-5.7-5.9c1.2-0.3,2.7-1.2,4.5-2.8c1.9-1.7,2.8-3.3,2.4-4.8c-0.5-2.1-2.9-2.9-3-2.9
		s-0.3-0.1-0.4-0.2c0.1-0.2,0.5-0.7,1.8-1.5c1.8-1.1,2.7-2.5,2.8-4c0.1-2.7-2.6-4.8-2.6-4.8l-2.2-1.9c3.4-3.2,7.8-4.9,12.5-4.9
		c1.4,0,2.7,0.2,4.1,0.5c-0.8,0.3-1.4,0.7-1.9,1.2c-1,1-1.4,2.4-1.2,4c0.3,1.8,1.1,3,2.4,3.8c0.6,0.3,1.2,0.5,1.9,0.6
		c-3.6,0.7-8.7,2.3-8.5,5.8c0,1,0.4,1.8,1.2,2.5c2.7,2.4,9.3,1.9,10.6,1.8h0.1c0,0,2.7-0.6,3.5,1.2c1,2.6,3.6,3.2,5.2,3.2
		c-1.3,3.6-3.7,6.7-6.8,8.9c-0.5-1.3-1.1-2-2.1-2.3c-0.4-0.1-0.9-0.1-1.4,0c-0.2-1.6-0.7-2.7-1.5-3.3c-0.6-0.5-1.4-0.7-2.3-0.5
		c-1.3,0.2-2.8,1-3.5,3.6c-1.5-1.1-3.2-1.5-3.5-1.5C65.3,44.5,63.8,44.8,62.6,45.8z"/>
</g>
</svg>
