<?xml version="1.0" encoding="utf-8"?>
<!-- Generator: Adobe Illustrator 21.0.2, SVG Export Plug-In . SVG Version: 6.00 Build 0)  -->
<svg version="1.1" id="Layer_1" xmlns="http://www.w3.org/2000/svg" xmlns:xlink="http://www.w3.org/1999/xlink" x="0px" y="0px"
	 viewBox="0 0 100 100" style="enable-background:new 0 0 100 100;" xml:space="preserve">
<g>
	<circle cx="49.5" cy="8.2" r="8.2"/>
	<path d="M39.9,95.4c0,2.5,2,4.6,4.6,4.6c2.5,0,4.6-2.1,4.6-4.6l0-38.4h2l0,38.4c0,2.5,2,4.6,4.6,4.6c2.5,0,4.6-2.1,4.6-4.6l0-66.2
		h2v24.4c0,4.9,6.4,4.9,6.4,0V28.7c0-5.4-3.2-10.7-9.5-10.7l-18.3,0c-5.8,0-9.4,4.7-9.4,10.6v25.1c0,4.9,6.4,4.9,6.4,0V29.3h2
		L39.9,95.4z"/>
</g>
</svg>
