<?xml version="1.0" encoding="utf-8"?>
<!-- Generator: Adobe Illustrator 21.0.2, SVG Export Plug-In . SVG Version: 6.00 Build 0)  -->
<svg version="1.1" id="Layer_1" xmlns="http://www.w3.org/2000/svg" xmlns:xlink="http://www.w3.org/1999/xlink" x="0px" y="0px"
	 viewBox="0 0 100 100" style="enable-background:new 0 0 100 100;" xml:space="preserve">
<g>
	<g>
		<path d="M86.3,58.7c-1.9-2.1-5-2.2-7.1-0.4L64.8,71.4c0.9,2.8,0.1,5.6-1.8,7.4c-1.3,1.2-3,1.8-4.9,1.7l-15.3,0
			c-0.8,0-1.9,0.2-2.9,0.6c-0.5,0.2-1,0.6-1.6,1.1l-2.2-2.4c0.8-0.7,1.5-1.2,2.4-1.6c1.7-0.8,3.5-0.9,4.5-1l14.9,0.2
			c0.9,0,1.9-0.4,2.6-1c1.6-1.5,1.8-4,0.3-5.6c-0.7-0.8-1.7-1.2-2.7-1.3L28.2,68c-5.3-0.1-8,2.6-10.2,4.6l-5.6,5.1l12.1,13.4
			l2.4-2.2c1.5-1.4,2.8-2,5.1-1.8l24.2,0.5c3.7-0.1,7.2-1.5,9.9-4l19.8-17.9C88,63.9,88.1,60.7,86.3,58.7z"/>
		<g>
			<g>
				<path d="M77.4,49.6c-0.2,0-0.3,0-0.5,0l-27-5l0.3-1.7l27,5c0.3,0.1,0.7,0,0.9-0.2c0.1-0.1,0.2-0.2,0.3-0.4l4.4-27.4
					c0-0.2-0.1-0.4-0.2-0.5c-0.2-0.2-0.5-0.4-0.8-0.4l-10.3-1.4l0.2-1.7L82,17.1c0.7,0.1,1.4,0.5,1.9,1c0.5,0.6,0.7,1.3,0.6,2
					l-4.4,27.4c-0.1,0.6-0.4,1.2-1,1.5C78.6,49.4,78,49.6,77.4,49.6z"/>
			</g>
			<g>
				<path d="M27.3,15.9c0,0-0.1,0-0.1,0c-0.5-0.1-0.8-0.5-0.7-1l0.6-4c0.2-1.4,1.7-2.3,3.2-2l24.6,3.9c0.5,0.1,0.8,0.5,0.7,1
					c-0.1,0.5-0.5,0.8-1,0.7L30,10.6c-0.6-0.1-1.1,0.2-1.2,0.6l-0.6,4C28,15.6,27.7,15.9,27.3,15.9z"/>
			</g>
		</g>
		<g>
			<path d="M70.7,13.4c0.1,0,0.1,0,0.2,0l2.2,27.4c0,0-0.1,0.1-0.2,0.1l-52.3,4.2c-0.1,0-0.1,0-0.2,0l-2.2-27.4c0,0,0.1-0.1,0.2-0.1
				L70.7,13.4L70.7,13.4 M70.7,11.6c-0.1,0-0.1,0-0.2,0l-52.2,4.2c-1.1,0.1-1.9,0.9-1.8,1.8l2.2,27.7c0.1,0.9,0.9,1.5,1.9,1.5
				c0.1,0,0.1,0,0.2,0L73,42.6c1.1-0.1,1.9-0.9,1.8-1.8l-2.2-27.7C72.6,12.3,71.7,11.6,70.7,11.6L70.7,11.6z"/>
			<g>
				<path d="M46.5,30.3l0.2,1.9c0.7-0.2,1-0.6,1-1.1C47.6,30.7,47.2,30.5,46.5,30.3z"/>
				<path d="M56,28.4c-0.5-5.7-5.4-10-11.1-9.5c-5.7,0.5-10,5.4-9.5,11.1c0.5,5.7,5.4,10,11.1,9.5C52.2,39.1,56.4,34.1,56,28.4z
					 M46.8,34l0.1,1.3l-1.3,0.1l-0.1-1.3c-1.5,0-2.6-0.5-3.5-1.2l1-1.7c0.6,0.5,1.4,0.9,2.3,1l-0.2-2.2c-1.5-0.2-3.1-0.7-3.3-2.6
					c-0.1-1.4,0.9-2.7,2.8-3.1l-0.1-1.3l1.3-0.1l0.1,1.3c1.2,0,2.2,0.4,3,1L48,27c-0.5-0.4-1.2-0.7-1.8-0.8l0.2,2
					c1.5,0.2,3.2,0.7,3.3,2.6C49.8,32.4,48.9,33.7,46.8,34z"/>
				<path d="M43.9,27.2c0,0.4,0.4,0.6,1,0.7l-0.1-1.7C44.2,26.4,43.9,26.7,43.9,27.2z"/>
			</g>
		</g>
		<g>
			<g>
				<path d="M30.5,55.3c-3.7,0-5.7-0.8-5.9-0.8c-0.1,0-0.2-0.1-0.2-0.2V52c0-0.1,0.1-0.3,0.3-0.3c0.1,0,0.3,0.1,0.3,0.3v2.1
					c0.9,0.3,5.2,1.4,12.3,0V52c0-0.1,0.1-0.3,0.3-0.3c0.1,0,0.3,0.1,0.3,0.3v2.3c0,0.1-0.1,0.2-0.2,0.3
					C34.8,55.1,32.4,55.3,30.5,55.3z"/>
			</g>
			<g>
				<path d="M31.1,53.1c-1.1,0-6.7-0.1-6.7-1.2c0-1.1,5.5-1.2,6.7-1.2c1.1,0,6.7,0.1,6.7,1.2C37.8,53.1,32.2,53.1,31.1,53.1z M25,52
					c0.5,0.3,2.7,0.7,6.1,0.7c3.4,0,5.6-0.4,6.1-0.7c-0.5-0.3-2.7-0.7-6.1-0.7C27.7,51.3,25.5,51.7,25,52z"/>
			</g>
			<g>
				<path d="M25.6,54.8c-0.1,0-0.2-0.1-0.2-0.2v-2.1c0-0.1,0.1-0.2,0.2-0.2s0.2,0.1,0.2,0.2v2.1C25.8,54.6,25.7,54.8,25.6,54.8z"/>
			</g>
			<g>
				<path d="M26.5,54.8c-0.1,0-0.2-0.1-0.2-0.2v-1.9c0-0.1,0.1-0.2,0.2-0.2c0.1,0,0.2,0.1,0.2,0.2v1.9
					C26.7,54.7,26.6,54.8,26.5,54.8z"/>
			</g>
			<g>
				<path d="M27.4,55c-0.1,0-0.2-0.1-0.2-0.2v-1.9c0-0.1,0.1-0.2,0.2-0.2c0.1,0,0.2,0.1,0.2,0.2v1.9C27.7,54.9,27.6,55,27.4,55z"/>
			</g>
			<g>
				<path d="M28.4,55c-0.1,0-0.2-0.1-0.2-0.2v-1.9c0-0.1,0.1-0.2,0.2-0.2s0.2,0.1,0.2,0.2v1.9C28.6,54.9,28.5,55,28.4,55z"/>
			</g>
			<g>
				<path d="M29.3,55.2c-0.1,0-0.2-0.1-0.2-0.2v-2.1c0-0.1,0.1-0.2,0.2-0.2s0.2,0.1,0.2,0.2V55C29.5,55.1,29.4,55.2,29.3,55.2z"/>
			</g>
			<g>
				<path d="M30.2,55.2c-0.1,0-0.2-0.1-0.2-0.2v-2.1c0-0.1,0.1-0.2,0.2-0.2c0.1,0,0.2,0.1,0.2,0.2V55C30.5,55.1,30.4,55.2,30.2,55.2
					z"/>
			</g>
			<g>
				<path d="M31.2,55.2c-0.1,0-0.2-0.1-0.2-0.2v-2.1c0-0.1,0.1-0.2,0.2-0.2c0.1,0,0.2,0.1,0.2,0.2V55C31.4,55.1,31.3,55.2,31.2,55.2
					z"/>
			</g>
			<g>
				<path d="M32.1,55.2c-0.1,0-0.2-0.1-0.2-0.2v-2.1c0-0.1,0.1-0.2,0.2-0.2c0.1,0,0.2,0.1,0.2,0.2V55C32.3,55.1,32.2,55.2,32.1,55.2
					z"/>
			</g>
			<g>
				<path d="M33,55.2c-0.1,0-0.2-0.1-0.2-0.2v-2.1c0-0.1,0.1-0.2,0.2-0.2s0.2,0.1,0.2,0.2v2.1C33.3,55.1,33.2,55.2,33,55.2z"/>
			</g>
			<g>
				<path d="M34,55c-0.1,0-0.2-0.1-0.2-0.2v-1.9c0-0.1,0.1-0.2,0.2-0.2s0.2,0.1,0.2,0.2v1.9C34.2,54.9,34.1,55,34,55z"/>
			</g>
			<g>
				<path d="M34.9,55c-0.1,0-0.2-0.1-0.2-0.2v-1.9c0-0.1,0.1-0.2,0.2-0.2c0.1,0,0.2,0.1,0.2,0.2v1.9C35.1,54.8,35,55,34.9,55z"/>
			</g>
			<g>
				<path d="M35.8,54.8c-0.1,0-0.2-0.1-0.2-0.2v-1.7c0-0.1,0.1-0.2,0.2-0.2c0.1,0,0.2,0.1,0.2,0.2v1.7C36.1,54.7,36,54.8,35.8,54.8z
					"/>
			</g>
			<g>
				<path d="M36.8,54.6c-0.1,0-0.2-0.1-0.2-0.2v-2c0-0.1,0.1-0.2,0.2-0.2c0.1,0,0.2,0.1,0.2,0.2v2C37,54.5,36.9,54.6,36.8,54.6z"/>
			</g>
		</g>
		<g>
			<g>
				<path d="M45.1,51.1c-2.4,0-3.7-0.5-3.8-0.5c-0.1,0-0.1-0.1-0.1-0.2v-1.5c0-0.1,0.1-0.2,0.2-0.2c0.1,0,0.2,0.1,0.2,0.2v1.4
					c0.6,0.2,3.4,0.9,8,0v-1.4c0-0.1,0.1-0.2,0.2-0.2s0.2,0.1,0.2,0.2v1.5c0,0.1-0.1,0.1-0.1,0.2C47.9,51,46.4,51.1,45.1,51.1z"/>
			</g>
			<g>
				<path d="M45.5,49.7c-0.7,0-4.3,0-4.3-0.8c0-0.7,3.6-0.8,4.3-0.8s4.3,0,4.3,0.8C49.9,49.6,46.2,49.7,45.5,49.7z M41.5,48.9
					c0.3,0.2,1.8,0.4,4,0.4c2.2,0,3.7-0.2,4-0.4c-0.3-0.2-1.8-0.4-4-0.4C43.3,48.5,41.9,48.7,41.5,48.9z"/>
			</g>
			<g>
				<path d="M41.9,50.7c-0.1,0-0.1-0.1-0.1-0.1v-1.4c0-0.1,0.1-0.1,0.1-0.1c0.1,0,0.1,0.1,0.1,0.1v1.4C42,50.7,42,50.7,41.9,50.7z"
					/>
			</g>
			<g>
				<path d="M42.5,50.8c-0.1,0-0.1-0.1-0.1-0.1v-1.2c0-0.1,0.1-0.1,0.1-0.1c0.1,0,0.1,0.1,0.1,0.1v1.2
					C42.7,50.7,42.6,50.8,42.5,50.8z"/>
			</g>
			<g>
				<path d="M43.1,50.9c-0.1,0-0.1-0.1-0.1-0.1v-1.2c0-0.1,0.1-0.1,0.1-0.1c0.1,0,0.1,0.1,0.1,0.1v1.2
					C43.3,50.8,43.2,50.9,43.1,50.9z"/>
			</g>
			<g>
				<path d="M43.7,50.9c-0.1,0-0.1-0.1-0.1-0.1v-1.2c0-0.1,0.1-0.1,0.1-0.1c0.1,0,0.1,0.1,0.1,0.1v1.2
					C43.9,50.8,43.8,50.9,43.7,50.9z"/>
			</g>
			<g>
				<path d="M44.3,51c-0.1,0-0.1-0.1-0.1-0.1v-1.4c0-0.1,0.1-0.1,0.1-0.1c0.1,0,0.2,0.1,0.2,0.1v1.4C44.5,51,44.4,51,44.3,51z"/>
			</g>
			<g>
				<path d="M44.9,51c-0.1,0-0.1-0.1-0.1-0.1v-1.4c0-0.1,0.1-0.1,0.1-0.1c0.1,0,0.1,0.1,0.1,0.1v1.4C45.1,51,45,51,44.9,51z"/>
			</g>
			<g>
				<path d="M45.5,51c-0.1,0-0.1-0.1-0.1-0.1v-1.4c0-0.1,0.1-0.1,0.1-0.1c0.1,0,0.1,0.1,0.1,0.1v1.4C45.7,51,45.6,51,45.5,51z"/>
			</g>
			<g>
				<path d="M46.2,51C46.1,51,46,51,46,50.9v-1.4c0-0.1,0.1-0.1,0.1-0.1c0.1,0,0.1,0.1,0.1,0.1v1.4C46.3,51,46.2,51,46.2,51z"/>
			</g>
			<g>
				<path d="M46.8,51c-0.1,0-0.1-0.1-0.1-0.1v-1.3c0-0.1,0.1-0.1,0.1-0.1c0.1,0,0.1,0.1,0.1,0.1v1.3C46.9,50.9,46.8,51,46.8,51z"/>
			</g>
			<g>
				<path d="M47.4,50.9c-0.1,0-0.1-0.1-0.1-0.1v-1.2c0-0.1,0.1-0.1,0.1-0.1c0.1,0,0.1,0.1,0.1,0.1v1.2
					C47.5,50.8,47.5,50.9,47.4,50.9z"/>
			</g>
			<g>
				<path d="M48,50.9c-0.1,0-0.1-0.1-0.1-0.1v-1.2c0-0.1,0.1-0.1,0.1-0.1c0.1,0,0.1,0.1,0.1,0.1v1.2C48.1,50.8,48.1,50.9,48,50.9z"
					/>
			</g>
			<g>
				<path d="M48.6,50.8c-0.1,0-0.1-0.1-0.1-0.1v-1.1c0-0.1,0.1-0.1,0.1-0.1c0.1,0,0.1,0.1,0.1,0.1v1.1
					C48.7,50.7,48.7,50.8,48.6,50.8z"/>
			</g>
			<g>
				<path d="M49.2,50.7c-0.1,0-0.1-0.1-0.1-0.1v-1.3c0-0.1,0.1-0.1,0.1-0.1s0.1,0.1,0.1,0.1v1.3C49.3,50.6,49.3,50.7,49.2,50.7z"/>
			</g>
		</g>
		<g>
			<g>
				<path d="M44.6,57.7c-3.7,0-5.7-0.8-5.9-0.8c-0.1,0-0.2-0.1-0.2-0.2v-2.3c0-0.1,0.1-0.3,0.3-0.3c0.1,0,0.3,0.1,0.3,0.3v2.1
					c0.9,0.3,5.2,1.4,12.3,0v-2.1c0-0.1,0.1-0.3,0.3-0.3c0.1,0,0.3,0.1,0.3,0.3v2.3c0,0.1-0.1,0.2-0.2,0.3
					C48.9,57.5,46.6,57.7,44.6,57.7z"/>
			</g>
			<g>
				<path d="M45.3,55.6c-1.1,0-6.7-0.1-6.7-1.2c0-1.1,5.5-1.2,6.7-1.2s6.7,0.1,6.7,1.2C51.9,55.5,46.4,55.6,45.3,55.6z M39.2,54.4
					c0.5,0.3,2.7,0.7,6.1,0.7s5.6-0.4,6.1-0.7c-0.5-0.3-2.7-0.7-6.1-0.7S39.6,54.1,39.2,54.4z"/>
			</g>
			<g>
				<path d="M39.7,57.2c-0.1,0-0.2-0.1-0.2-0.2v-2.1c0-0.1,0.1-0.2,0.2-0.2s0.2,0.1,0.2,0.2V57C39.9,57.1,39.8,57.2,39.7,57.2z"/>
			</g>
			<g>
				<path d="M40.6,57.2c-0.1,0-0.2-0.1-0.2-0.2v-1.9c0-0.1,0.1-0.2,0.2-0.2s0.2,0.1,0.2,0.2V57C40.9,57.1,40.8,57.2,40.6,57.2z"/>
			</g>
			<g>
				<path d="M41.6,57.4c-0.1,0-0.2-0.1-0.2-0.2v-1.9c0-0.1,0.1-0.2,0.2-0.2c0.1,0,0.2,0.1,0.2,0.2v1.9
					C41.8,57.3,41.7,57.4,41.6,57.4z"/>
			</g>
			<g>
				<path d="M42.5,57.4c-0.1,0-0.2-0.1-0.2-0.2v-1.9c0-0.1,0.1-0.2,0.2-0.2c0.1,0,0.2,0.1,0.2,0.2v1.9
					C42.7,57.3,42.6,57.4,42.5,57.4z"/>
			</g>
			<g>
				<path d="M43.5,57.6c-0.1,0-0.2-0.1-0.2-0.2v-2.1c0-0.1,0.1-0.2,0.2-0.2c0.1,0,0.2,0.1,0.2,0.2v2.1
					C43.7,57.5,43.6,57.6,43.5,57.6z"/>
			</g>
			<g>
				<path d="M44.4,57.6c-0.1,0-0.2-0.1-0.2-0.2v-2.1c0-0.1,0.1-0.2,0.2-0.2c0.1,0,0.2,0.1,0.2,0.2v2.1
					C44.6,57.5,44.5,57.6,44.4,57.6z"/>
			</g>
			<g>
				<path d="M45.3,57.6c-0.1,0-0.2-0.1-0.2-0.2v-2.1c0-0.1,0.1-0.2,0.2-0.2c0.1,0,0.2,0.1,0.2,0.2v2.1
					C45.5,57.5,45.4,57.6,45.3,57.6z"/>
			</g>
			<g>
				<path d="M46.3,57.6c-0.1,0-0.2-0.1-0.2-0.2v-2.1c0-0.1,0.1-0.2,0.2-0.2c0.1,0,0.2,0.1,0.2,0.2v2.1
					C46.5,57.5,46.4,57.6,46.3,57.6z"/>
			</g>
			<g>
				<path d="M47.2,57.6c-0.1,0-0.2-0.1-0.2-0.2v-2.1c0-0.1,0.1-0.2,0.2-0.2c0.1,0,0.2,0.1,0.2,0.2v2.1
					C47.4,57.5,47.3,57.6,47.2,57.6z"/>
			</g>
			<g>
				<path d="M48.1,57.4c-0.1,0-0.2-0.1-0.2-0.2v-1.9c0-0.1,0.1-0.2,0.2-0.2s0.2,0.1,0.2,0.2v1.9C48.4,57.3,48.2,57.4,48.1,57.4z"/>
			</g>
			<g>
				<path d="M49.1,57.4c-0.1,0-0.2-0.1-0.2-0.2v-1.8c0-0.1,0.1-0.2,0.2-0.2c0.1,0,0.2,0.1,0.2,0.2v1.8
					C49.3,57.3,49.2,57.4,49.1,57.4z"/>
			</g>
			<g>
				<path d="M50,57.2c-0.1,0-0.2-0.1-0.2-0.2v-1.7c0-0.1,0.1-0.2,0.2-0.2c0.1,0,0.2,0.1,0.2,0.2V57C50.2,57.1,50.1,57.2,50,57.2z"/>
			</g>
			<g>
				<path d="M50.9,57.1c-0.1,0-0.2-0.1-0.2-0.2v-2c0-0.1,0.1-0.2,0.2-0.2c0.1,0,0.2,0.1,0.2,0.2v2C51.2,57,51,57.1,50.9,57.1z"/>
			</g>
		</g>
		<g>
			<g>
				<path d="M57.5,54c-2.6,0-4-0.5-4.1-0.6c-0.1,0-0.1-0.1-0.1-0.2v-1.6c0-0.1,0.1-0.2,0.2-0.2s0.2,0.1,0.2,0.2v1.5
					c0.6,0.2,3.6,1,8.6,0v-1.5c0-0.1,0.1-0.2,0.2-0.2c0.1,0,0.2,0.1,0.2,0.2v1.6c0,0.1-0.1,0.2-0.1,0.2C60.5,53.9,58.8,54,57.5,54z"
					/>
			</g>
			<g>
				<path d="M57.9,52.5c-0.8,0-4.7,0-4.7-0.8c0-0.8,3.9-0.8,4.7-0.8c0.8,0,4.7,0,4.7,0.8C62.6,52.4,58.7,52.5,57.9,52.5z M53.7,51.7
					c0.3,0.2,1.9,0.5,4.3,0.5c2.4,0,3.9-0.3,4.3-0.5c-0.3-0.2-1.9-0.5-4.3-0.5C55.6,51.2,54,51.5,53.7,51.7z"/>
			</g>
			<g>
				<path d="M54,53.6c-0.1,0-0.2-0.1-0.2-0.2V52c0-0.1,0.1-0.2,0.2-0.2c0.1,0,0.2,0.1,0.2,0.2v1.5C54.2,53.5,54.1,53.6,54,53.6z"/>
			</g>
			<g>
				<path d="M54.7,53.7c-0.1,0-0.2-0.1-0.2-0.2v-1.3c0-0.1,0.1-0.2,0.2-0.2s0.2,0.1,0.2,0.2v1.3C54.8,53.6,54.8,53.7,54.7,53.7z"/>
			</g>
			<g>
				<path d="M55.3,53.8c-0.1,0-0.2-0.1-0.2-0.2v-1.3c0-0.1,0.1-0.2,0.2-0.2c0.1,0,0.2,0.1,0.2,0.2v1.3
					C55.5,53.7,55.4,53.8,55.3,53.8z"/>
			</g>
			<g>
				<path d="M56,53.8c-0.1,0-0.2-0.1-0.2-0.2v-1.3c0-0.1,0.1-0.2,0.2-0.2c0.1,0,0.2,0.1,0.2,0.2v1.3C56.2,53.7,56.1,53.8,56,53.8z"
					/>
			</g>
			<g>
				<path d="M56.6,53.9c-0.1,0-0.2-0.1-0.2-0.2v-1.5c0-0.1,0.1-0.2,0.2-0.2c0.1,0,0.2,0.1,0.2,0.2v1.5
					C56.8,53.9,56.7,53.9,56.6,53.9z"/>
			</g>
			<g>
				<path d="M57.3,53.9c-0.1,0-0.2-0.1-0.2-0.2v-1.5c0-0.1,0.1-0.2,0.2-0.2s0.2,0.1,0.2,0.2v1.5C57.5,53.9,57.4,53.9,57.3,53.9z"/>
			</g>
			<g>
				<path d="M58,53.9c-0.1,0-0.2-0.1-0.2-0.2v-1.5c0-0.1,0.1-0.2,0.2-0.2c0.1,0,0.2,0.1,0.2,0.2v1.5C58.1,53.9,58,53.9,58,53.9z"/>
			</g>
			<g>
				<path d="M58.6,53.9c-0.1,0-0.2-0.1-0.2-0.2v-1.5c0-0.1,0.1-0.2,0.2-0.2c0.1,0,0.2,0.1,0.2,0.2v1.5
					C58.8,53.9,58.7,53.9,58.6,53.9z"/>
			</g>
			<g>
				<path d="M59.3,53.9c-0.1,0-0.2-0.1-0.2-0.2v-1.5c0-0.1,0.1-0.2,0.2-0.2c0.1,0,0.2,0.1,0.2,0.2v1.5
					C59.4,53.8,59.3,53.9,59.3,53.9z"/>
			</g>
			<g>
				<path d="M59.9,53.8c-0.1,0-0.2-0.1-0.2-0.2v-1.3c0-0.1,0.1-0.2,0.2-0.2c0.1,0,0.2,0.1,0.2,0.2v1.3C60.1,53.7,60,53.8,59.9,53.8z
					"/>
			</g>
			<g>
				<path d="M60.6,53.8c-0.1,0-0.2-0.1-0.2-0.2v-1.3c0-0.1,0.1-0.2,0.2-0.2c0.1,0,0.2,0.1,0.2,0.2v1.3
					C60.7,53.7,60.7,53.8,60.6,53.8z"/>
			</g>
			<g>
				<path d="M61.2,53.7c-0.1,0-0.2-0.1-0.2-0.2v-1.2c0-0.1,0.1-0.2,0.2-0.2c0.1,0,0.2,0.1,0.2,0.2v1.2
					C61.4,53.6,61.3,53.7,61.2,53.7z"/>
			</g>
			<g>
				<path d="M61.9,53.5c-0.1,0-0.2-0.1-0.2-0.2V52c0-0.1,0.1-0.2,0.2-0.2c0.1,0,0.2,0.1,0.2,0.2v1.4C62,53.5,62,53.5,61.9,53.5z"/>
			</g>
		</g>
	</g>
</g>
</svg>
