<svg xmlns="http://www.w3.org/2000/svg" xmlns:xlink="http://www.w3.org/1999/xlink" viewBox="0 0 126.5 126.46"><defs><clipPath id="clip-path"><circle cx="63.21" cy="62.5" r="62.5" style="fill:#a4e3ff"/></clipPath><clipPath id="clip-path-2"><path d="M107.26,33.1H19.16a1.08,1.08,0,0,0-1.1,1.2V90.7a1.2,1.2,0,0,0,1.1,1.2h27.3l8.6-5.4h16.3L80,91.9h27.4a1.08,1.08,0,0,0,1.1-1.2V34.3A1.38,1.38,0,0,0,107.26,33.1Z" style="fill:none"/></clipPath></defs><title>retail</title><g id="Layer_2" data-name="Layer 2"><g id="Layer_1-2" data-name="Layer 1"><circle cx="63.21" cy="62.5" r="62.5" style="fill:#a4e3ff"/><g style="clip-path:url(#clip-path)"><g id="cloudR"><circle cx="103.24" cy="41.57" r="10.52" style="fill:#fff"/><circle cx="90.8" cy="43.14" r="7.9" style="fill:#fff"/><rect x="78.75" y="43.14" width="38.33" height="8.95" rx="4.48" ry="4.48" transform="translate(195.83 95.23) rotate(-180)" style="fill:#fff"/></g><g id="cloudL"><circle cx="32.59" cy="25.57" r="10.52" style="fill:#fff"/><circle cx="45.03" cy="27.14" r="7.9" style="fill:#fff"/><rect x="18.75" y="27.14" width="38.33" height="8.95" rx="4.48" ry="4.48" style="fill:#fff"/></g><rect id="street" x="9.08" y="106.38" width="106.37" height="19.33" style="fill:#3a3a3a;stroke:#1a1a1a;stroke-miterlimit:10;stroke-width:1.5px"/><g id="swalk"><rect x="0.75" y="81.96" width="125" height="25" style="fill:#dcd8d3;stroke:#1a1a1a;stroke-miterlimit:10;stroke-width:1.5px"/><line x1="11.16" y1="106.96" x2="11.16" y2="81.4" style="fill:none;stroke:#1a1a1a;stroke-miterlimit:10;stroke-width:1.5px"/><line x1="42.16" y1="106.96" x2="42.16" y2="81.4" style="fill:none;stroke:#1a1a1a;stroke-miterlimit:10;stroke-width:1.5px"/><line x1="76.16" y1="106.96" x2="76.16" y2="81.4" style="fill:none;stroke:#1a1a1a;stroke-miterlimit:10;stroke-width:1.5px"/><line x1="104.16" y1="106.96" x2="104.16" y2="81.4" style="fill:none;stroke:#1a1a1a;stroke-miterlimit:10;stroke-width:1.5px"/></g></g><g id="Layer_2-2" data-name="Layer 2"><g id="store"><path d="M107.26,33.1H19.16a1.08,1.08,0,0,0-1.1,1.2V90.7a1.2,1.2,0,0,0,1.1,1.2h27.3l8.6-5.4h16.3L80,91.9h27.4a1.08,1.08,0,0,0,1.1-1.2V34.3A1.38,1.38,0,0,0,107.26,33.1Z" style="fill:#562517"/><g style="clip-path:url(#clip-path-2)"><rect x="18.06" y="53.1" width="90.4" height="38.8" style="fill:#ebfffd;stroke:#1a1a1a;stroke-miterlimit:10;stroke-width:1.5px"/><path d="M18.06,81.4h28.6V92H19.26a1.16,1.16,0,0,1-1.2-1.2V81.4Z" style="fill:#562517;stroke:#1a1a1a;stroke-miterlimit:10;stroke-width:1.5px"/><path d="M107.36,92H80V81.4h28.6v9.4A1.29,1.29,0,0,1,107.36,92Z" style="fill:#562517;stroke:#1a1a1a;stroke-miterlimit:10;stroke-width:1.5px"/><rect x="18.66" y="44.2" width="3.3" height="37.9" style="fill:#562517"/><line x1="22.56" y1="53.1" x2="22.56" y2="81.3" style="fill:none;stroke:#1a1a1a;stroke-miterlimit:10;stroke-width:1.5px"/><rect x="104.36" y="44.3" width="3.5" height="37.9" style="fill:#562517"/><line x1="103.76" y1="53.3" x2="103.76" y2="81.4" style="fill:none;stroke:#1a1a1a;stroke-miterlimit:10;stroke-width:1.5px"/><rect x="55.06" y="53.1" width="16.3" height="33.3" style="fill:#7c0903;stroke:#1a1a1a;stroke-miterlimit:10;stroke-width:1.5px"/><path d="M68.16,67.7h0a1.26,1.26,0,0,1,1.3,1.3v.1a1.32,1.32,0,0,1-1.3,1.3h-.1a1.32,1.32,0,0,1-1.3-1.3V69A1.49,1.49,0,0,1,68.16,67.7Z" style="fill:#d4af37;stroke:#1a1a1a;stroke-miterlimit:10;stroke-width:1.5px"/><polygon points="46.46 91.8 46.46 53.1 55.06 53.1 55.06 86.5 46.46 91.8" style="fill:#42210b;stroke:#1a1a1a;stroke-miterlimit:10;stroke-width:1.5px"/><polygon points="79.96 92 79.96 53.1 71.36 53.1 71.36 86.6 79.96 92" style="fill:#42210b;stroke:#1a1a1a;stroke-miterlimit:10;stroke-width:1.5px"/><polygon points="46.46 81.4 55.06 76 55.06 53.1 46.46 53.1 46.46 81.4" style="fill:#defffb;stroke:#1a1a1a;stroke-miterlimit:10;stroke-width:1.5px"/><polygon points="79.96 81.4 71.36 76 71.36 53.1 79.96 53.1 79.96 81.4" style="fill:#defffb;stroke:#1a1a1a;stroke-miterlimit:10;stroke-width:1.5px"/></g><path d="M107.26,33.1H19.16a1.08,1.08,0,0,0-1.1,1.2V90.7a1.2,1.2,0,0,0,1.1,1.2h27.3l8.6-5.4h16.3L80,91.9h27.4a1.08,1.08,0,0,0,1.1-1.2V34.3A1.38,1.38,0,0,0,107.26,33.1Z" style="fill:none;stroke:#1a1a1a;stroke-miterlimit:10;stroke-width:1.5px"/><polygon points="45.76 53.8 54.66 56.8 71.66 56.8 80.56 53.8 45.76 53.8" style="stroke:#1a1a1a;stroke-miterlimit:10;stroke-width:1.5px;opacity:0.15000000596046448;isolation:isolate"/></g><g id="detail"><path d="M42.76,61,28.46,72.8a1.09,1.09,0,0,1-1.5-.1h0a1.13,1.13,0,0,1,.2-1.6l14.3-11.7a1.09,1.09,0,0,1,1.5.1h0A1.11,1.11,0,0,1,42.76,61Z" style="fill:#fff"/><path d="M43.06,67.3l-7.8,6.4a1.09,1.09,0,0,1-1.5-.1h0A1.13,1.13,0,0,1,34,72l7.8-6.4a1.09,1.09,0,0,1,1.5.1h0A1.13,1.13,0,0,1,43.06,67.3Z" style="fill:#fff"/><path d="M35.76,59.6,28,66a1.09,1.09,0,0,1-1.5-.1h0a1.13,1.13,0,0,1,.2-1.6l7.8-6.4A1.09,1.09,0,0,1,36,58h0A1.23,1.23,0,0,1,35.76,59.6Z" style="fill:#fff"/><rect x="18.86" y="43.7" width="1.2" height="1.8" style="fill:#42210b"/><rect x="29.96" y="50.8" width="5.7" height="1.8" style="fill:#42210b"/><rect x="34.56" y="44.7" width="5.7" height="1.8" style="fill:#42210b"/><rect x="47.16" y="50.3" width="5.7" height="1.8" style="fill:#42210b"/><rect x="69.96" y="50.2" width="5.7" height="1.8" style="fill:#42210b"/><rect x="62.36" y="45.2" width="5.7" height="1.8" style="fill:#42210b"/><rect x="96.66" y="46.1" width="5.7" height="1.8" style="fill:#42210b"/><rect x="78.16" y="44.9" width="5.7" height="1.8" style="fill:#42210b"/><rect x="104.36" y="50.4" width="3.5" height="1.8" style="fill:#42210b"/><rect x="105.66" y="44.2" width="2.1" height="1.8" style="fill:#42210b"/><rect x="18.76" y="88.4" width="2.9" height="1.8" style="fill:#42210b"/><rect x="18.76" y="83.3" width="5.7" height="1.8" style="fill:#42210b"/><rect x="85.86" y="86.1" width="5.7" height="1.8" style="fill:#42210b"/><rect x="98.86" y="88.5" width="5.7" height="1.8" style="fill:#42210b"/><rect x="104.96" y="83.3" width="2.9" height="1.8" style="fill:#42210b"/><rect x="32.76" y="84.6" width="5.7" height="1.8" style="fill:#42210b"/><rect x="42.56" y="82.8" width="3.3" height="1.8" style="fill:#42210b"/><rect x="37.96" y="88.4" width="5.7" height="1.8" style="fill:#42210b"/><rect x="24.06" y="86.6" width="5.7" height="1.8" style="fill:#42210b"/><rect x="93.16" y="83.5" width="5.7" height="1.8" style="fill:#42210b"/><rect x="80.66" y="83" width="2.9" height="1.8" style="fill:#42210b"/><rect x="80.66" y="89.2" width="2.9" height="1.8" style="fill:#42210b"/><rect x="90.56" y="50.2" width="5.7" height="1.8" style="fill:#42210b"/><rect x="83.56" y="47.9" width="5.7" height="1.8" style="fill:#42210b"/><rect x="60.06" y="50.4" width="5.7" height="1.8" style="fill:#42210b"/><rect x="39.56" y="47.9" width="5.7" height="1.8" style="fill:#42210b"/><rect x="50.76" y="44.7" width="5.7" height="1.8" style="fill:#42210b"/><rect x="18.86" y="50.8" width="2.9" height="1.8" style="fill:#42210b"/><rect x="22.16" y="47.1" width="5.7" height="1.8" style="fill:#42210b"/><path d="M99.56,61,85.36,72.8a1.09,1.09,0,0,1-1.5-.1h0a1.13,1.13,0,0,1,.2-1.6l14.3-11.7a1.09,1.09,0,0,1,1.5.1h0A1.14,1.14,0,0,1,99.56,61Z" style="fill:#fff"/><path d="M100,67.3l-7.8,6.4a1.09,1.09,0,0,1-1.5-.1h0a1.13,1.13,0,0,1,.2-1.6l7.8-6.4a1.09,1.09,0,0,1,1.5.1h0A1.36,1.36,0,0,1,100,67.3Z" style="fill:#fff"/><path d="M92.56,59.6,84.76,66a1.09,1.09,0,0,1-1.5-.1h0a1.13,1.13,0,0,1,.2-1.6l7.8-6.4a1.09,1.09,0,0,1,1.5.1h0A1.13,1.13,0,0,1,92.56,59.6Z" style="fill:#fff"/><rect x="18.76" y="34.7" width="1.3" height="1.8" style="fill:#42210b"/><rect x="29.86" y="40.6" width="5.7" height="1.8" style="fill:#42210b"/><rect x="34.56" y="34.6" width="5.7" height="1.8" style="fill:#42210b"/><rect x="47.06" y="40.2" width="5.7" height="1.8" style="fill:#42210b"/><rect x="69.96" y="40.1" width="5.7" height="1.8" style="fill:#42210b"/><rect x="62.16" y="35" width="5.7" height="1.8" style="fill:#42210b"/><rect x="96.66" y="36.1" width="5.7" height="1.8" style="fill:#42210b"/><rect x="78.06" y="34.8" width="5.7" height="1.8" style="fill:#42210b"/><rect x="104.36" y="41.5" width="3.3" height="1.8" style="fill:#42210b"/><rect x="105.66" y="34.1" width="2.1" height="1.8" style="fill:#42210b"/><rect x="90.56" y="40.1" width="5.7" height="1.8" style="fill:#42210b"/><rect x="83.56" y="37.9" width="5.7" height="1.8" style="fill:#42210b"/><rect x="59.96" y="40.3" width="5.7" height="1.8" style="fill:#42210b"/><rect x="39.56" y="37.9" width="5.7" height="1.8" style="fill:#42210b"/><rect x="50.66" y="34.6" width="5.7" height="1.8" style="fill:#42210b"/><rect x="18.76" y="40.6" width="2.9" height="1.8" style="fill:#42210b"/><rect x="22.16" y="37" width="5.7" height="1.8" style="fill:#42210b"/><rect x="104.36" y="57.2" width="3.5" height="1.8" style="fill:#42210b"/><rect x="104.36" y="62.1" width="1.3" height="1.8" style="fill:#42210b"/><rect x="105.46" y="66.7" width="2.4" height="1.8" style="fill:#42210b"/><rect x="106.26" y="70.7" width="1.5" height="1.8" style="fill:#42210b"/><rect x="104.36" y="75.4" width="3.5" height="1.8" style="fill:#42210b"/><rect x="104.36" y="80.2" width="1.3" height="1.8" style="fill:#42210b"/><rect x="18.66" y="61.5" width="1.3" height="1.8" style="fill:#42210b"/><rect x="20.36" y="70.1" width="1.5" height="1.8" style="fill:#42210b"/><rect x="18.66" y="74.8" width="3.3" height="1.8" style="fill:#42210b"/><rect x="18.76" y="79.6" width="1.3" height="1.8" style="fill:#42210b"/></g><g id="transparent"><polygon points="109.26 42.9 17.16 42.9 16.86 37.1 109.56 37.1 109.26 42.9" style="fill:#d1a88c;stroke:#1a1a1a;stroke-miterlimit:10;stroke-width:1.5px"/><polygon points="17.16 42.9 109.26 42.9 109.56 40 16.96 39.9 17.16 42.9" style="opacity:0.4000000059604645;isolation:isolate"/><rect x="17.16" y="39.9" width="3.6" height="2.4" style="opacity:0.25;isolation:isolate"/><rect x="25.56" y="39.9" width="3.6" height="2.4" style="opacity:0.25;isolation:isolate"/><rect x="33.36" y="39.9" width="3.6" height="2.4" style="opacity:0.25;isolation:isolate"/><rect x="41.76" y="39.9" width="3.6" height="2.4" style="opacity:0.25;isolation:isolate"/><rect x="49.36" y="39.9" width="3.6" height="2.4" style="opacity:0.25;isolation:isolate"/><rect x="57.66" y="39.9" width="3.6" height="2.4" style="opacity:0.25;isolation:isolate"/><rect x="65.56" y="39.9" width="3.6" height="2.4" style="opacity:0.25;isolation:isolate"/><rect x="73.86" y="39.9" width="3.6" height="2.4" style="opacity:0.25;isolation:isolate"/><rect x="81.46" y="39.9" width="3.6" height="2.4" style="opacity:0.25;isolation:isolate"/><rect x="89.36" y="39.9" width="3.6" height="2.4" style="opacity:0.25;isolation:isolate"/><rect x="97.66" y="39.9" width="3.6" height="2.4" style="opacity:0.25;isolation:isolate"/><rect x="18.66" y="42.9" width="89.2" height="2.2" style="opacity:0.10000000149011612;isolation:isolate"/><rect x="105.16" y="39.9" width="3.6" height="2.4" style="opacity:0.25;isolation:isolate"/></g></g></g></g></svg>