<svg xmlns="http://www.w3.org/2000/svg" xmlns:xlink="http://www.w3.org/1999/xlink" viewBox="0 0 126.5 131.97"><defs><clipPath id="clip-path"><circle cx="63.25" cy="62.5" r="62.5" style="fill:#a4e3ff"/></clipPath></defs><title>school</title><g id="Layer_2" data-name="Layer 2"><g id="Layer_1-2" data-name="Layer 1"><circle cx="63.25" cy="62.5" r="62.5" style="fill:#a4e3ff"/><g style="clip-path:url(#clip-path)"><rect x="0.75" y="75" width="125" height="54" style="fill:#149152;stroke:#000;stroke-miterlimit:10;stroke-width:1.5px"/><rect x="45.71" y="76.78" width="35" height="54.44" style="fill:#ffe6aa;stroke:#000;stroke-miterlimit:10;stroke-width:1.5px"/><g id="cloudL"><circle cx="32.25" cy="25.5" r="10.5" style="fill:#fff"/><circle cx="44.75" cy="27" r="8" style="fill:#fff"/><rect x="18.75" y="27" width="38" height="9" rx="4.48" ry="4.48" style="fill:#fff"/></g><g id="cloudR"><circle cx="103.25" cy="41.5" r="10.5" style="fill:#fff"/><circle cx="90.75" cy="43" r="8" style="fill:#fff"/><rect x="78.75" y="43" width="38" height="9" rx="4.48" ry="4.48" transform="translate(195.5 95) rotate(-180)" style="fill:#fff"/></g><rect x="48.71" y="26.89" width="29" height="64.21" style="fill:#6a0b00;stroke:#000;stroke-miterlimit:10;stroke-width:1.5px"/><polygon points="63.21 15.37 44.99 29 81.42 29 63.21 15.37" style="fill:#3f0b07;stroke:#000;stroke-miterlimit:10;stroke-width:1.5px"/><rect x="4.75" y="64" width="44" height="23" style="fill:#6a0b00;stroke:#000;stroke-miterlimit:10;stroke-width:1.5px"/><rect x="77.75" y="64" width="44" height="23" style="fill:#6a0b00;stroke:#000;stroke-miterlimit:10;stroke-width:1.5px"/><rect x="82.75" y="71" width="5" height="12" style="fill:#ebfffd;stroke:#000;stroke-miterlimit:10;stroke-width:1.5px"/><rect x="87.75" y="71" width="5" height="12" style="fill:#ebfffd;stroke:#000;stroke-miterlimit:10;stroke-width:1.5px"/><rect x="92.75" y="71" width="5" height="12" style="fill:#ebfffd;stroke:#000;stroke-miterlimit:10;stroke-width:1.5px"/><rect x="101.75" y="71" width="5" height="12" style="fill:#ebfffd;stroke:#000;stroke-miterlimit:10;stroke-width:1.5px"/><rect x="106.75" y="71" width="5" height="12" style="fill:#ebfffd;stroke:#000;stroke-miterlimit:10;stroke-width:1.5px"/><rect x="111.75" y="71" width="5" height="12" style="fill:#ebfffd;stroke:#000;stroke-miterlimit:10;stroke-width:1.5px"/></g><path d="M63,63.54h.38a8.5,8.5,0,0,1,8.5,8.5V91a0,0,0,0,1,0,0H54.5a0,0,0,0,1,0,0V72A8.5,8.5,0,0,1,63,63.54Z" style="fill:#b79c8a;stroke:#000;stroke-miterlimit:10;stroke-width:1.5px"/><path d="M63.21,66h0a6.5,6.5,0,0,1,6.5,6.5V91a0,0,0,0,1,0,0h-13a0,0,0,0,1,0,0V72.5A6.5,6.5,0,0,1,63.21,66Z" style="fill:#42210b;stroke:#000;stroke-miterlimit:10;stroke-width:1.5px"/><rect x="55.71" y="44" width="5" height="12" style="fill:#ebfffd;stroke:#000;stroke-miterlimit:10;stroke-width:1.5px"/><rect x="60.71" y="44" width="5" height="12" style="fill:#ebfffd;stroke:#000;stroke-miterlimit:10;stroke-width:1.5px"/><rect x="65.71" y="44" width="5" height="12" style="fill:#ebfffd;stroke:#000;stroke-miterlimit:10;stroke-width:1.5px"/><rect x="48.75" y="33" width="28.88" height="4" style="fill:#b79c8a;stroke:#000;stroke-miterlimit:10;stroke-width:1.5px"/><path d="M66.16,77.74h0a1.26,1.26,0,0,1,1.3,1.3v.1a1.32,1.32,0,0,1-1.3,1.3h-.1a1.32,1.32,0,0,1-1.3-1.3V79A1.49,1.49,0,0,1,66.16,77.74Z" style="fill:#d4af37;stroke:#1a1a1a;stroke-miterlimit:10;stroke-width:1.5px"/><rect x="77.75" y="64" width="44" height="4" style="fill:#b79c8a;stroke:#000;stroke-miterlimit:10;stroke-width:1.5px"/><rect x="4.75" y="64" width="44" height="4" style="fill:#b79c8a;stroke:#000;stroke-miterlimit:10;stroke-width:1.5px"/><rect x="9.75" y="71" width="5" height="12" style="fill:#ebfffd;stroke:#000;stroke-miterlimit:10;stroke-width:1.5px"/><rect x="14.75" y="71" width="5" height="12" style="fill:#ebfffd;stroke:#000;stroke-miterlimit:10;stroke-width:1.5px"/><rect x="19.75" y="71" width="5" height="12" style="fill:#ebfffd;stroke:#000;stroke-miterlimit:10;stroke-width:1.5px"/><rect x="28.75" y="71" width="5" height="12" style="fill:#ebfffd;stroke:#000;stroke-miterlimit:10;stroke-width:1.5px"/><rect x="33.75" y="71" width="5" height="12" style="fill:#ebfffd;stroke:#000;stroke-miterlimit:10;stroke-width:1.5px"/><rect x="38.75" y="71" width="5" height="12" style="fill:#ebfffd;stroke:#000;stroke-miterlimit:10;stroke-width:1.5px"/></g></g></svg>