<svg xmlns="http://www.w3.org/2000/svg" xmlns:xlink="http://www.w3.org/1999/xlink" viewBox="0 0 126.5 129.29"><defs><clipPath id="clip-path"><circle cx="63" cy="62.5" r="62.5" style="fill:#a4e3ff"/></clipPath></defs><title>vacant</title><g id="Layer_2" data-name="Layer 2"><g id="Layer_1-2" data-name="Layer 1"><circle cx="63" cy="62.5" r="62.5" style="fill:#a4e3ff"/><g style="clip-path:url(#clip-path)"><rect x="0.75" y="74.96" width="125" height="53.59" style="fill:#149152;stroke:#000;stroke-miterlimit:10;stroke-width:1.5px"/></g><g id="dirt"><ellipse cx="49.31" cy="108.59" rx="10.38" ry="10.79" style="fill:#ffe6aa"/><path d="M84.82,92.1c2.55,13.32-14.83,28.27-26.61,24.31-7.93-2.66-13.76-14-10.78-24.31,2.21-7.63,9.31-14.75,18.7-14.76S83.39,84.64,84.82,92.1Z" style="fill:#ffe6aa"/><circle cx="52.13" cy="80.25" r="1.41" transform="translate(-43.18 88.76) rotate(-62.1)" style="fill:#ffe6aa"/><circle cx="43.84" cy="94.02" r="1.92" style="fill:#ffe6aa"/></g><g id="grass"><path d="M25.81,76c1.93-5.28,1.87-7.87,1.38-9.26-.09-.25-.36-.94-.29-1a8.83,8.83,0,0,1,1.92,3.84c.63,2.66-.29,4.77,0,4.83s.58-1.63,2-3.26a9.37,9.37,0,0,1,5.33-3c.11.14-3.36,1.21-4.38,3.81-.66,1.7-.11,3.65.42,3.7s1.07-1.2,1.33-2.13c.39-1.35.07-2.29.29-2.33s.82,1.06,1.08,2.19a6.39,6.39,0,0,1,.08,2.4" style="fill:#149152;stroke:#000;stroke-miterlimit:10;stroke-width:1.5px"/><path d="M36.19,106c-2.5-3.83-2.42-5.71-1.78-6.72.12-.18.47-.68.38-.7a6.52,6.52,0,0,0-2.49,2.79c-.82,1.93.38,3.46,0,3.51s-1.25-1.16-1.39-1.41a20.29,20.29,0,0,1-.91-2.28c-1.46-2.52-7.09-1-7.24-.83h0c0,.1,4.31-.61,5.69,1.11,1.08,1.34.32,4.12-.55,4.33-.55.13-1.32-.75-1.73-1.54-.5-1-.09-1.66-.38-1.69s-1.07.77-1.41,1.59a2.7,2.7,0,0,0-.2.92,2.66,2.66,0,0,0,.1.82" style="fill:#149152;stroke:#000;stroke-miterlimit:10;stroke-width:1.5px"/><path d="M88.53,106.71c2.38-3.52,2.3-5.25,1.7-6.17-.11-.17-.45-.62-.36-.64a6.08,6.08,0,0,1,2.36,2.56c.78,1.77-.36,3.18,0,3.22s.72-1.09,2.5-2.17a16.56,16.56,0,0,1,6.58-2c.13.09-4.15.8-5.4,2.54-.82,1.13-.13,2.43.51,2.47s1.32-.8,1.64-1.42c.48-.9.09-1.53.36-1.55s1,.7,1.34,1.46a2.36,2.36,0,0,1,.1,1.6" style="fill:#149152;stroke:#000;stroke-miterlimit:10;stroke-width:1.5px"/><path d="M107.88,88.19c1.93-5.28,1.87-7.87,1.38-9.26-.09-.25-.36-.94-.29-1a8.83,8.83,0,0,1,1.92,3.84c.63,2.66-.29,4.77,0,4.83s.58-1.63,2-3.26a9.37,9.37,0,0,1,5.33-3c.11.14-3.36,1.21-4.38,3.81-.66,1.7-.11,3.65.42,3.7s1.07-1.2,1.33-2.13c.39-1.35.07-2.29.29-2.33s.82,1.06,1.08,2.19a6.39,6.39,0,0,1,.08,2.4" style="fill:#149152;stroke:#000;stroke-miterlimit:10;stroke-width:1.5px"/><path d="M96.19,76c-2.5-3.83-2.42-5.71-1.78-6.72.12-.18.47-.68.38-.7a6.52,6.52,0,0,0-2.49,2.79c-.82,1.93.38,3.46,0,3.51S91,73.76,90.89,73.51A20.29,20.29,0,0,1,90,71.23c-1.46-2.52-7.09-1-7.24-.83h0c0,.1,4.31-.61,5.69,1.11,1.08,1.34.32,4.12-.55,4.33-.55.13-1.32-.75-1.73-1.54-.5-1-.09-1.66-.38-1.69s-1.07.77-1.41,1.59a2.7,2.7,0,0,0-.2.92,2.66,2.66,0,0,0,.1.82" style="fill:#149152;stroke:#000;stroke-miterlimit:10;stroke-width:1.5px"/></g><g id="cloudL"><circle cx="32.38" cy="25.57" r="10.52" style="fill:#fff"/><circle cx="44.83" cy="27.14" r="7.9" style="fill:#fff"/><rect x="18.54" y="27.14" width="38.33" height="8.95" rx="4.48" ry="4.48" style="fill:#fff"/></g><g id="cloudR"><circle cx="103.04" cy="41.57" r="10.52" style="fill:#fff"/><circle cx="90.59" cy="43.14" r="7.9" style="fill:#fff"/><rect x="78.54" y="43.14" width="38.33" height="8.95" rx="4.48" ry="4.48" transform="translate(195.42 95.23) rotate(-180)" style="fill:#fff"/></g></g></g></svg>